<svg width="24" height="24" viewBox="0 0 24 24" fill="none" xmlns="http://www.w3.org/2000/svg">
<path d="M13.0291 2.00098C14.1545 2.00284 14.7248 2.00879 15.2176 2.02346L15.4117 2.02981C15.6359 2.03778 15.8571 2.04778 16.1238 2.06028C17.1879 2.10944 17.9138 2.27778 18.5513 2.52528C19.2104 2.77944 19.7671 3.12278 20.3229 3.67861C20.8779 4.23444 21.2213 4.79278 21.4763 5.45028C21.7229 6.08694 21.8913 6.81361 21.9413 7.87778C21.9532 8.14444 21.9628 8.36564 21.9707 8.58989L21.977 8.78397C21.9916 9.27672 21.9983 9.8471 22.0004 10.9725L22.0012 11.7182C22.0013 11.8093 22.0013 11.9033 22.0013 12.0003L22.0012 12.2824L22.0006 13.0281C21.9987 14.1535 21.9928 14.7238 21.9781 15.2166L21.9717 15.4107C21.9638 15.6349 21.9538 15.8561 21.9413 16.1228C21.8921 17.1869 21.7229 17.9128 21.4763 18.5503C21.2221 19.2094 20.8779 19.7661 20.3229 20.3219C19.7671 20.8769 19.2079 21.2203 18.5513 21.4753C17.9138 21.7219 17.1879 21.8903 16.1238 21.9403C15.8571 21.9522 15.6359 21.9618 15.4117 21.9697L15.2176 21.976C14.7248 21.9906 14.1545 21.9973 13.0291 21.9994L12.2834 22.0002C12.1923 22.0003 12.0983 22.0003 12.0013 22.0003L11.7192 22.0002L10.9735 21.9996C9.84807 21.9977 9.27769 21.9918 8.78494 21.9771L8.59086 21.9707C8.36661 21.9628 8.14541 21.9528 7.87875 21.9403C6.81458 21.8911 6.08958 21.7219 5.45125 21.4753C4.79291 21.2211 4.23541 20.8769 3.67958 20.3219C3.12375 19.7661 2.78125 19.2069 2.52625 18.5503C2.27875 17.9128 2.11125 17.1869 2.06125 16.1228C2.04937 15.8561 2.03968 15.6349 2.03183 15.4107L2.02554 15.2166C2.01091 14.7238 2.00424 14.1535 2.00208 13.0281L2.00195 10.9725C2.00381 9.8471 2.00976 9.27672 2.02443 8.78397L2.03078 8.58989C2.03875 8.36564 2.04875 8.14444 2.06125 7.87778C2.11041 6.81278 2.27875 6.08778 2.52625 5.45028C2.78041 4.79194 3.12375 4.23444 3.67958 3.67861C4.23541 3.12278 4.79375 2.78028 5.45125 2.52528C6.08875 2.27778 6.81375 2.11028 7.87875 2.06028C8.14541 2.0484 8.36661 2.03871 8.59086 2.03086L8.78494 2.02457C9.27769 2.00994 9.84807 2.00327 10.9735 2.00111L13.0291 2.00098ZM12.0013 7.00028C9.23835 7.00028 7.00125 9.23981 7.00125 12.0003C7.00125 14.7632 9.24078 17.0003 12.0013 17.0003C14.7642 17.0003 17.0013 14.7607 17.0013 12.0003C17.0013 9.23738 14.7617 7.00028 12.0013 7.00028ZM12.0013 9.00028C13.6582 9.00028 15.0013 10.3429 15.0013 12.0003C15.0013 13.6572 13.6586 15.0003 12.0013 15.0003C10.3444 15.0003 9.00125 13.6576 9.00125 12.0003C9.00125 10.3434 10.3439 9.00028 12.0013 9.00028ZM17.2513 5.50028C16.562 5.50028 16.0013 6.06018 16.0013 6.74943C16.0013 7.43867 16.5612 7.99944 17.2513 7.99944C17.9405 7.99944 18.5013 7.43954 18.5013 6.74943C18.5013 6.06018 17.9396 5.49941 17.2513 5.50028Z" fill="#454545"/>
</svg>
