<svg width="183" height="25" viewBox="0 0 183 25" fill="none" xmlns="http://www.w3.org/2000/svg">
<path d="M9.9365 0.849615V0H4.31215L0.0292969 7.28383H4.84378L8.60991 0.849615H9.9365Z" fill="#D2161A"/>
<path d="M4.31266 15.4819H9.93701V14.6323H8.61042L4.80951 8.14838H0L4.31266 15.4819Z" fill="#D2161A"/>
<g opacity="0.95">
<path d="M15.6113 14.5577V0.864502H25.4688V3.35372H18.1999V7.09501H25.0763V9.48486H18.1999V14.5577H15.6113Z" fill="#1D1D1B"/>
<path d="M38.1341 14.5577H27.8691V0.844666H38.1341V3.35376H30.4379V6.50876H37.8608V8.91352H30.4379V12.0089H38.1341V14.5528V14.5577Z" fill="#1D1D1B"/>
<path d="M52.9605 14.5577H49.885L45.8903 9.97676H43.4011V14.5577H40.8125V0.824768C42.9887 0.824768 45.1649 0.844642 47.3361 0.844642C50.5706 0.864516 52.2748 3.02085 52.2748 5.38586C52.2748 7.26892 51.4153 9.17186 48.8068 9.69852L52.9555 14.3838V14.5577H52.9605ZM43.4011 3.25437V7.64156H47.3361C48.9807 7.64156 49.6863 6.54849 49.6863 5.44548C49.6863 4.34247 48.9608 3.2494 47.3361 3.2494H43.4011V3.25437Z" fill="#1D1D1B"/>
<path d="M66.8472 14.5577H63.7717L59.7721 9.97676H57.2828V14.5577H54.6992V0.824768C56.8705 0.824768 59.0467 0.844642 61.2179 0.844642C64.4524 0.864516 66.1566 3.02085 66.1566 5.38586C66.1566 7.26892 65.2921 9.17186 62.6886 9.69852L66.8422 14.3838V14.5577H66.8472ZM57.2878 3.25437V7.64156H61.2229C62.8724 7.64156 63.5779 6.54849 63.5779 5.44548C63.5779 4.34247 62.8525 3.2494 61.2229 3.2494H57.2878V3.25437Z" fill="#1D1D1B"/>
<path d="M78.7903 14.5577H68.5254V0.844666H78.7903V3.35376H71.0891V6.50876H78.5121V8.91352H71.0891V12.0089H78.7903V14.5528V14.5577Z" fill="#1D1D1B"/>
<path d="M93.3981 4.62566L88.9314 10.5829H88.4197L84.0524 4.60579V14.5776H81.4688V0.864502H84.4449L88.7377 6.76212L93.0255 0.864502H95.9818V14.5776H93.3981V4.62566Z" fill="#1D1D1B"/>
<path d="M108.811 11.9741H101.642L100.464 14.5577H97.6621L103.813 0.844666H106.635L112.786 14.5577H109.964L108.806 11.9741H108.811ZM105.229 3.7264L102.685 9.56439H107.773L105.229 3.7264Z" fill="#1D1D1B"/>
<path d="M126.772 14.5577H123.696L119.702 9.97676H117.213V14.5577H114.629V0.824768C116.805 0.824768 118.976 0.844642 121.153 0.844642C124.387 0.864516 126.091 3.02085 126.091 5.38586C126.091 7.26892 125.232 9.17186 122.623 9.69852L126.772 14.3838V14.5577ZM117.213 3.25437V7.64156H121.153C122.797 7.64156 123.503 6.54849 123.503 5.44548C123.503 4.34247 122.782 3.2494 121.153 3.2494H117.213V3.25437Z" fill="#1D1D1B"/>
<path d="M132.644 3.19477H128.297V0.844666H139.58V3.19477H135.233V14.5577H132.649V3.19477H132.644Z" fill="#1D1D1B"/>
</g>
<g opacity="0.95">
<path d="M102.347 17.9363L104.582 22.9247H103.912L103.42 21.8267H100.568L100.086 22.9247H99.4102L101.646 17.9363H102.347ZM101.999 18.5624L100.816 21.2553H103.181L101.999 18.5624ZM102.227 16.4806H102.938V16.5004L102.227 17.4246H101.691V17.3898L102.227 16.4756V16.4806Z" fill="#1D1D1B"/>
<path d="M105.785 19.397L105.83 19.9237C106.038 19.5362 106.401 19.3374 106.913 19.3374C107.221 19.3275 107.494 19.4169 107.732 19.6007L107.469 20.0976C107.285 19.9684 107.082 19.9038 106.858 19.9038C106.57 19.9038 106.321 20.0082 106.123 20.197C105.924 20.3907 105.825 20.6441 105.825 20.9571V22.9147H105.238V19.397H105.785Z" fill="#1D1D1B"/>
<path d="M111.325 22.3633C111.156 22.567 110.932 22.721 110.654 22.8303C110.381 22.9396 110.098 22.9893 109.804 22.9893C109.253 22.9893 108.806 22.8204 108.463 22.4875C108.12 22.1546 107.951 21.7074 107.951 21.151C107.951 20.5945 108.12 20.1821 108.463 19.8393C108.806 19.4964 109.243 19.3275 109.775 19.3275C110.346 19.3275 110.798 19.5064 111.131 19.8591C111.464 20.2119 111.598 20.7237 111.533 21.3944H108.542C108.577 21.7124 108.711 21.9658 108.95 22.1596C109.188 22.3533 109.477 22.4477 109.819 22.4477C110.028 22.4477 110.237 22.408 110.45 22.3285C110.664 22.249 110.823 22.1447 110.937 22.0055L111.33 22.3633H111.325ZM110.982 20.9125C110.967 20.5746 110.853 20.3162 110.639 20.1324C110.425 19.9486 110.142 19.8591 109.79 19.8591C109.472 19.8591 109.198 19.9535 108.965 20.1374C108.731 20.3212 108.592 20.5796 108.542 20.9075H110.977L110.982 20.9125Z" fill="#1D1D1B"/>
<path d="M115.24 22.9396L115.225 22.2987C115.091 22.5322 114.907 22.7061 114.669 22.8303C114.43 22.9496 114.182 23.0142 113.929 23.0142C113.412 23.0142 112.98 22.8452 112.637 22.5124C112.294 22.1795 112.125 21.7273 112.125 21.1709C112.125 20.6144 112.299 20.1722 112.642 19.8443C112.985 19.5163 113.417 19.3524 113.934 19.3573C114.207 19.3573 114.46 19.417 114.694 19.5412C114.932 19.6604 115.111 19.8343 115.235 20.0579V19.417H115.812V22.9347H115.25L115.235 22.9496L115.24 22.9396ZM113.958 19.9039C113.601 19.9039 113.303 20.0231 113.059 20.2566C112.816 20.4902 112.696 20.8032 112.696 21.1858C112.696 21.5683 112.816 21.8814 113.059 22.1198C113.303 22.3583 113.601 22.4776 113.958 22.4776C114.192 22.4776 114.401 22.4279 114.579 22.3335C114.758 22.2391 114.902 22.1149 114.997 21.9608C115.091 21.8068 115.161 21.6429 115.205 21.459C115.25 21.2752 115.25 21.0914 115.205 20.9125C115.161 20.7287 115.096 20.5597 114.997 20.4107C114.902 20.2566 114.763 20.1374 114.584 20.038C114.406 19.9436 114.197 19.8939 113.963 19.8939H113.958V19.9039Z" fill="#1D1D1B"/>
<path d="M118.713 19.417H119.269L119.299 20.0927C119.438 19.8592 119.627 19.6803 119.871 19.5462C120.114 19.417 120.372 19.3474 120.656 19.3474C121.167 19.3573 121.59 19.5263 121.918 19.8592C122.246 20.1921 122.409 20.6243 122.409 21.1609C122.409 21.6975 122.245 22.1546 121.913 22.4875C121.58 22.8204 121.152 22.9893 120.621 22.9893C120.348 22.9893 120.094 22.9297 119.851 22.8105C119.607 22.6912 119.423 22.5124 119.289 22.2739V24.5693H118.718V19.4021L118.713 19.417ZM121.47 22.1099C121.704 21.8814 121.818 21.5733 121.818 21.1858C121.818 20.7982 121.704 20.4902 121.47 20.2616C121.237 20.0331 120.944 19.9238 120.576 19.9238C120.208 19.9238 119.915 20.043 119.687 20.2815C119.458 20.52 119.344 20.8231 119.344 21.1858C119.344 21.5485 119.458 21.8466 119.692 22.0851C119.925 22.3235 120.218 22.4478 120.576 22.4527C120.939 22.4527 121.232 22.3385 121.465 22.1099H121.47Z" fill="#1D1D1B"/>
<path d="M123.8 19.397L123.845 19.9237C124.054 19.5362 124.417 19.3374 124.928 19.3374C125.236 19.3275 125.51 19.4169 125.748 19.6007L125.485 20.0976C125.301 19.9684 125.097 19.9038 124.874 19.9038C124.585 19.9038 124.337 20.0082 124.138 20.197C123.94 20.3907 123.84 20.6441 123.84 20.9571V22.9147H123.254V19.397H123.8Z" fill="#1D1D1B"/>
<path d="M126.405 17.991C126.534 17.9264 126.663 17.9264 126.787 17.991C126.911 18.0556 126.981 18.1699 126.981 18.3338C126.981 18.4978 126.916 18.6071 126.787 18.6717C126.658 18.7363 126.529 18.7363 126.405 18.6717C126.276 18.6071 126.211 18.4928 126.211 18.3289C126.211 18.1649 126.276 18.0556 126.405 17.991ZM126.3 22.9247H126.887V19.3921H126.3V22.9247Z" fill="#1D1D1B"/>
<path d="M128.252 19.407L128.824 20.7833L129.42 22.3086L130.011 20.7932L130.582 19.412H131.223L129.743 22.9396H129.102L127.611 19.412H128.252V19.407Z" fill="#1D1D1B"/>
<path d="M134.688 22.9396L134.673 22.2987C134.538 22.5322 134.355 22.7061 134.116 22.8303C133.878 22.9496 133.629 23.0142 133.376 23.0142C132.859 23.0142 132.427 22.8452 132.084 22.5124C131.741 22.1795 131.572 21.7273 131.572 21.1709C131.572 20.6144 131.746 20.1722 132.089 19.8443C132.432 19.5163 132.864 19.3524 133.381 19.3573C133.654 19.3573 133.907 19.417 134.141 19.5412C134.379 19.6604 134.558 19.8343 134.683 20.0579V19.417H135.259V22.9347H134.697L134.683 22.9496L134.688 22.9396ZM133.406 19.9039C133.048 19.9039 132.75 20.0231 132.506 20.2566C132.263 20.4902 132.144 20.8032 132.144 21.1858C132.144 21.5683 132.263 21.8814 132.506 22.1198C132.75 22.3583 133.048 22.4776 133.406 22.4776C133.639 22.4776 133.848 22.4279 134.027 22.3335C134.206 22.2391 134.35 22.1149 134.444 21.9608C134.538 21.8068 134.608 21.6429 134.653 21.459C134.697 21.2752 134.697 21.0914 134.653 20.9125C134.608 20.7287 134.543 20.5597 134.444 20.4107C134.35 20.2566 134.211 20.1374 134.032 20.038C133.853 19.9436 133.644 19.8939 133.411 19.8939H133.406V19.9039Z" fill="#1D1D1B"/>
<path d="M139.794 17.9313V22.9197H139.247L139.218 22.2788C139.078 22.5123 138.895 22.6862 138.656 22.8104C138.423 22.9297 138.169 22.9942 137.896 22.9942C137.379 22.9942 136.952 22.8303 136.619 22.5073C136.286 22.1844 136.117 21.7372 136.117 21.1708C136.117 20.6044 136.281 20.1473 136.614 19.8293C136.947 19.5113 137.369 19.3474 137.891 19.3474C138.159 19.3474 138.413 19.407 138.661 19.5312C138.909 19.6504 139.093 19.8293 139.208 20.0529V17.9413H139.794V17.9313ZM137.941 19.879C137.583 19.879 137.29 19.9933 137.051 20.2168C136.818 20.4404 136.699 20.7534 136.699 21.1559C136.699 21.5583 136.818 21.8614 137.051 22.09C137.285 22.3185 137.583 22.4328 137.941 22.4328C138.298 22.4328 138.592 22.3136 138.83 22.0751C139.068 21.8366 139.188 21.5285 139.188 21.1509C139.188 20.7733 139.068 20.4752 138.83 20.2367C138.592 19.9982 138.293 19.879 137.936 19.879H137.941Z" fill="#1D1D1B"/>
<path d="M143.754 22.9396L143.739 22.2987C143.605 22.5322 143.421 22.7061 143.183 22.8303C142.944 22.9496 142.696 23.0142 142.442 23.0142C141.926 23.0142 141.493 22.8452 141.15 22.5124C140.808 22.1795 140.639 21.7273 140.639 21.1709C140.639 20.6144 140.813 20.1722 141.155 19.8443C141.498 19.5163 141.93 19.3524 142.447 19.3573C142.72 19.3573 142.974 19.417 143.207 19.5412C143.446 19.6604 143.625 19.8343 143.749 20.0579V19.417H144.325V22.9347H143.764L143.749 22.9496L143.754 22.9396ZM142.472 19.9039C142.114 19.9039 141.816 20.0231 141.573 20.2566C141.329 20.4902 141.21 20.8032 141.21 21.1858C141.21 21.5683 141.329 21.8814 141.573 22.1198C141.816 22.3583 142.114 22.4776 142.472 22.4776C142.706 22.4776 142.914 22.4279 143.093 22.3335C143.272 22.2391 143.416 22.1149 143.51 21.9608C143.605 21.8068 143.674 21.6429 143.719 21.459C143.764 21.2752 143.764 21.0914 143.719 20.9125C143.674 20.7287 143.61 20.5597 143.51 20.4107C143.416 20.2566 143.277 20.1374 143.098 20.038C142.919 19.9436 142.711 19.8939 142.477 19.8939H142.472V19.9039Z" fill="#1D1D1B"/>
<path d="M150.685 17.9313V22.9197H150.138L150.108 22.2788C149.969 22.5123 149.785 22.6862 149.547 22.8104C149.313 22.9297 149.06 22.9942 148.787 22.9942C148.27 22.9942 147.843 22.8303 147.51 22.5073C147.177 22.1844 147.008 21.7372 147.008 21.1708C147.008 20.6044 147.172 20.1473 147.505 19.8293C147.838 19.5113 148.26 19.3474 148.782 19.3474C149.05 19.3474 149.303 19.407 149.552 19.5312C149.8 19.6504 149.984 19.8293 150.098 20.0529V17.9413H150.685V17.9313ZM148.831 19.879C148.474 19.879 148.18 19.9933 147.942 20.2168C147.708 20.4404 147.589 20.7534 147.589 21.1559C147.589 21.5583 147.708 21.8614 147.942 22.09C148.175 22.3185 148.474 22.4328 148.831 22.4328C149.189 22.4328 149.482 22.3136 149.721 22.0751C149.959 21.8366 150.078 21.5285 150.078 21.1509C150.078 20.7733 149.959 20.4752 149.721 20.2367C149.482 19.9982 149.184 19.879 148.826 19.879H148.831Z" fill="#1D1D1B"/>
<path d="M154.903 22.3633C154.734 22.567 154.51 22.721 154.232 22.8303C153.959 22.9396 153.676 22.9893 153.383 22.9893C152.831 22.9893 152.384 22.8204 152.041 22.4875C151.698 22.1546 151.529 21.7074 151.529 21.151C151.529 20.5945 151.698 20.1821 152.041 19.8393C152.384 19.4964 152.821 19.3275 153.353 19.3275C153.924 19.3275 154.376 19.5064 154.709 19.8591C155.042 20.2119 155.176 20.7237 155.112 21.3944H152.121C152.155 21.7124 152.289 21.9658 152.528 22.1596C152.766 22.3533 153.055 22.4477 153.397 22.4477C153.606 22.4477 153.815 22.408 154.028 22.3285C154.242 22.249 154.401 22.1447 154.515 22.0055L154.908 22.3633H154.903ZM154.56 20.9125C154.545 20.5746 154.431 20.3162 154.217 20.1324C154.004 19.9486 153.72 19.8591 153.368 19.8591C153.05 19.8591 152.776 19.9535 152.543 20.1374C152.309 20.3212 152.17 20.5796 152.121 20.9075H154.555L154.56 20.9125Z" fill="#1D1D1B"/>
<path d="M160.681 22.4477C160.319 22.8104 159.881 22.9893 159.37 22.9893C158.858 22.9893 158.411 22.8253 158.058 22.5024C157.705 22.1794 157.531 21.7323 157.531 21.1658C157.531 20.5994 157.705 20.1473 158.053 19.8244C158.401 19.5014 158.838 19.3424 159.37 19.3424C159.861 19.3424 160.289 19.5163 160.646 19.8691L160.274 20.2516C160.03 20.0132 159.737 19.8939 159.385 19.8939C159.032 19.8939 158.724 20.0082 158.485 20.2417C158.247 20.4752 158.127 20.7783 158.127 21.1658C158.127 21.5534 158.247 21.8714 158.485 22.095C158.724 22.3185 159.022 22.4328 159.38 22.4328C159.737 22.4328 160.055 22.3086 160.299 22.0602L160.691 22.4527H160.686L160.681 22.4477Z" fill="#1D1D1B"/>
<path d="M162.059 22.9247H161.473V17.9363H162.059V22.9247Z" fill="#1D1D1B"/>
<path d="M163.276 17.991C163.405 17.9264 163.534 17.9264 163.658 17.991C163.783 18.0556 163.852 18.1699 163.852 18.3338C163.852 18.4978 163.788 18.6071 163.658 18.6717C163.529 18.7363 163.4 18.7363 163.276 18.6717C163.147 18.6071 163.082 18.4928 163.082 18.3289C163.082 18.1649 163.147 18.0556 163.276 17.991ZM163.171 22.9247H163.758V19.3921H163.171V22.9247Z" fill="#1D1D1B"/>
<path d="M167.971 22.3633C167.802 22.567 167.579 22.721 167.301 22.8303C167.027 22.9396 166.744 22.9893 166.451 22.9893C165.899 22.9893 165.452 22.8204 165.109 22.4875C164.767 22.1546 164.598 21.7074 164.598 21.151C164.598 20.5945 164.767 20.1821 165.109 19.8393C165.452 19.4964 165.889 19.3275 166.421 19.3275C166.992 19.3275 167.445 19.5064 167.777 19.8591C168.11 20.2119 168.245 20.7237 168.18 21.3944H165.189C165.224 21.7124 165.358 21.9658 165.596 22.1596C165.835 22.3533 166.123 22.4477 166.466 22.4477C166.674 22.4477 166.883 22.408 167.097 22.3285C167.31 22.249 167.469 22.1447 167.584 22.0055L167.976 22.3633H167.971ZM167.628 20.9125C167.614 20.5746 167.499 20.3162 167.286 20.1324C167.072 19.9486 166.789 19.8591 166.436 19.8591C166.118 19.8591 165.845 19.9535 165.611 20.1374C165.378 20.3212 165.239 20.5796 165.189 20.9075H167.623L167.628 20.9125Z" fill="#1D1D1B"/>
<path d="M169 19.3971H169.537L169.566 19.9585C169.865 19.5511 170.267 19.3474 170.769 19.3474C171.226 19.3474 171.599 19.4915 171.882 19.7846C172.17 20.0778 172.314 20.4753 172.314 20.9771V22.9198H171.728V20.9821C171.728 20.6392 171.633 20.3709 171.444 20.1772C171.256 19.9834 170.992 19.884 170.659 19.884C170.341 19.884 170.083 19.9983 169.879 20.2169C169.676 20.4355 169.576 20.7038 169.576 21.0268V22.9148H169V19.3971Z" fill="#1D1D1B"/>
<path d="M174.226 19.412H175.315V19.9088H174.217V21.7671C174.217 22.2192 174.4 22.4428 174.773 22.4428C174.932 22.4428 175.096 22.3981 175.265 22.3136L175.434 22.8005C175.195 22.9098 174.967 22.9645 174.748 22.9694C174.008 22.9843 173.635 22.5819 173.635 21.7671V19.9088H172.93V19.412H173.635V18.4431L174.222 18.3785V19.412H174.226Z" fill="#1D1D1B"/>
<path d="M179.213 22.3633C179.045 22.567 178.821 22.721 178.543 22.8303C178.269 22.9396 177.986 22.9893 177.693 22.9893C177.142 22.9893 176.694 22.8204 176.352 22.4875C176.009 22.1546 175.84 21.7074 175.84 21.151C175.84 20.5945 176.009 20.1821 176.352 19.8393C176.694 19.4964 177.132 19.3275 177.663 19.3275C178.235 19.3275 178.687 19.5064 179.02 19.8591C179.353 20.2119 179.487 20.7237 179.422 21.3944H176.431C176.466 21.7124 176.6 21.9658 176.839 22.1596C177.077 22.3533 177.365 22.4477 177.708 22.4477C177.917 22.4477 178.125 22.408 178.339 22.3285C178.553 22.249 178.712 22.1447 178.826 22.0055L179.218 22.3633H179.213ZM178.871 20.9125C178.856 20.5746 178.741 20.3162 178.528 20.1324C178.314 19.9486 178.031 19.8591 177.678 19.8591C177.36 19.8591 177.087 19.9535 176.853 20.1374C176.62 20.3212 176.481 20.5796 176.431 20.9075H178.866L178.871 20.9125Z" fill="#1D1D1B"/>
<path d="M182.499 20.1871C182.246 19.9585 181.918 19.8442 181.51 19.8442C181.252 19.8442 181.043 19.884 180.879 19.9734C180.715 20.0629 180.636 20.192 180.641 20.356C180.641 20.6342 180.939 20.8081 181.515 20.8777C181.679 20.8976 181.818 20.9174 181.923 20.9373C182.027 20.9572 182.161 20.992 182.31 21.0417C182.464 21.0913 182.584 21.151 182.668 21.2255C182.757 21.295 182.832 21.3944 182.902 21.5236C182.966 21.6478 183.001 21.7969 182.996 21.9608C182.996 22.2987 182.847 22.557 182.569 22.7409C182.29 22.9247 181.938 23.0142 181.52 23.0142C180.82 23.0142 180.298 22.7955 179.945 22.3533L180.278 21.9459C180.571 22.3086 180.989 22.4875 181.53 22.4875C181.764 22.4875 181.967 22.4428 182.146 22.3583C182.325 22.2738 182.415 22.1347 182.42 21.936C182.42 21.7621 182.345 21.6329 182.181 21.5534C182.017 21.4739 181.779 21.4143 181.471 21.3745C181.272 21.3497 181.098 21.3199 180.959 21.2801C180.815 21.2404 180.671 21.1857 180.522 21.1162C180.373 21.0466 180.263 20.9473 180.184 20.8181C180.104 20.6939 180.065 20.5398 180.065 20.356C180.065 20.1175 180.139 19.9188 180.283 19.7598C180.427 19.6008 180.606 19.4865 180.815 19.417C181.023 19.3524 181.247 19.3176 181.491 19.3226C182.037 19.3226 182.484 19.4815 182.832 19.7946L182.499 20.1771H182.494L182.499 20.1871Z" fill="#1D1D1B"/>
</g>
<path d="M183 0.193787H144.475V15.2782H183V0.193787Z" fill="#D2161A"/>
<path d="M149.735 10.1755V13.2659H147.301V2.34015H152.448C153.78 2.34015 154.808 2.71279 155.539 3.46303C156.269 4.21328 156.632 5.14239 156.632 6.25533C156.632 7.36828 156.269 8.33714 155.549 9.06254C154.823 9.79291 153.795 10.1606 152.453 10.1705H149.74L149.735 10.1755ZM149.735 7.94462H152.448C153.01 7.94462 153.442 7.7906 153.745 7.47758C154.048 7.16457 154.197 6.77702 154.197 6.30502C154.197 5.83301 154.043 5.44546 153.735 5.12748C153.427 4.8095 153 4.6505 152.448 4.6505H149.735V7.94462Z" fill="white"/>
<path d="M167.901 13.2659H165.204L162.411 9.67863H160.647V13.2659H158.213V2.34015H163.395C164.652 2.34015 165.641 2.69788 166.361 3.41831C167.077 4.13875 167.439 5.00327 167.439 6.02181C167.429 6.83168 167.246 7.5223 166.893 8.08871C166.54 8.65512 165.879 9.11222 164.91 9.45505L167.906 13.0771V13.2659H167.901ZM160.647 4.43686V7.62167H163.425C163.947 7.62167 164.344 7.46765 164.617 7.15463C164.891 6.84162 165.03 6.48885 165.03 6.09137C165.02 5.66408 164.876 5.2815 164.592 4.94365C164.314 4.60579 163.912 4.43686 163.39 4.43686H160.642H160.647Z" fill="white"/>
<path d="M179.002 11.984C177.919 13.0125 176.493 13.5292 174.724 13.5292C172.955 13.5292 171.529 13.0125 170.451 11.984C169.368 10.9555 168.826 9.55938 168.826 7.80053C168.826 6.04167 169.368 4.65049 170.451 3.61704C171.534 2.58359 172.96 2.07184 174.724 2.07184C176.488 2.07184 177.919 2.58856 179.002 3.61704C180.085 4.64552 180.626 6.04167 180.626 7.80053C180.626 9.55938 180.085 10.9506 179.002 11.984ZM177.263 5.26659C176.612 4.59584 175.767 4.25798 174.729 4.25798C173.69 4.25798 172.856 4.59584 172.2 5.27156C171.544 5.94727 171.216 6.79192 171.216 7.80053C171.216 8.80913 171.544 9.67365 172.2 10.3345C172.856 10.9953 173.7 11.3232 174.729 11.3232C175.757 11.3232 176.627 10.9953 177.273 10.3345C177.919 9.67365 178.241 8.82901 178.241 7.80053C178.241 6.77204 177.919 5.93734 177.268 5.26659H177.263Z" fill="white"/>
</svg>
