<svg width="24" height="24" viewBox="0 0 24 24" fill="none" xmlns="http://www.w3.org/2000/svg">
<path d="M6.50391 2H17.5039C17.8186 2 18.115 2.14819 18.3039 2.4L21.0039 6V21C21.0039 21.5523 20.5562 22 20.0039 22H4.00391C3.45163 22 3.00391 21.5523 3.00391 21V6L5.70391 2.4C5.89277 2.14819 6.18916 2 6.50391 2ZM18.5039 6L17.0039 4H7.00391L5.50391 6H18.5039ZM9.00391 10H7.00391V12C7.00391 14.7614 9.24249 17 12.0039 17C14.7653 17 17.0039 14.7614 17.0039 12V10H15.0039V12C15.0039 13.6569 13.6607 15 12.0039 15C10.347 15 9.00391 13.6569 9.00391 12V10Z" fill="#1F1F1F"/>
</svg>
