<svg width="13" height="20" viewBox="0 0 13 20" fill="none" xmlns="http://www.w3.org/2000/svg">
<path d="M5.71292 -3.05176e-05H12.9776C12.9913 0.387807 12.9982 0.776996 13.0009 1.16483C12.4216 1.16483 11.8437 1.16483 11.2658 1.16754C9.6157 3.92564 7.99035 6.69591 6.3293 9.44591C4.23034 9.4378 2.13275 9.44726 0.0351562 9.44186C1.63992 6.75807 3.24331 4.07429 4.84808 1.39051C5.1295 0.922942 5.39032 0.441861 5.71292 -3.05176e-05Z" fill="#D2161A"/>
<path d="M0 10.5513C2.10033 10.5459 4.1993 10.5486 6.29826 10.55C7.95931 13.3297 9.60388 16.1189 11.2718 18.8946C11.8456 18.8919 12.4208 18.8919 12.996 18.9C12.996 19.2662 12.9946 19.6338 12.9946 20H5.66679C3.74903 16.8689 1.8903 13.7 0 10.5513Z" fill="#D2161A"/>
</svg>
